<svg width="196" height="196" viewBox="0 0 196 196" fill="none" xmlns="http://www.w3.org/2000/svg">
<g clip-path="url(#clip0_3_15)">
<g clip-path="url(#clip1_3_15)">
<rect width="196" height="196" fill="#E9E9EA"/>
<path d="M10.3359 108.078V77.0703H17.5328V89.0141H17.6859L30.2422 77.0703H39.0469L25.725 89.5883L39.2766 108.078H30.7781L20.6719 94.0672L17.5328 96.5938V108.078H10.3359ZM48.6674 108.499C45.9112 108.499 43.7547 107.848 42.1979 106.547C40.6667 105.22 39.901 103.459 39.901 101.264C39.901 98.9927 40.7049 97.2445 42.3127 96.0195C43.9461 94.769 46.2685 94.1437 49.2799 94.1437H55.4432V93.3016C55.4432 91.2089 54.1161 90.1625 51.462 90.1625C49.114 90.1625 47.6849 90.9536 47.1745 92.5359H40.2073C40.7432 89.9328 41.9555 87.9677 43.844 86.6406C45.7325 85.3135 48.2591 84.65 51.4237 84.65C54.92 84.65 57.587 85.4284 59.4245 86.9852C61.262 88.5164 62.1807 90.7622 62.1807 93.7227V101.187H65.4729V108.078H58.4292V104.25H56.8213C56.0302 105.628 54.9838 106.687 53.6823 107.427C52.3807 108.142 50.7091 108.499 48.6674 108.499ZM49.7393 103.216C50.8622 103.216 51.8448 103.025 52.687 102.642C53.5547 102.259 54.231 101.736 54.7159 101.073C55.2008 100.409 55.4432 99.669 55.4432 98.8523V98.7375H49.5862C47.6211 98.7375 46.6385 99.4648 46.6385 100.92C46.6385 101.66 46.9065 102.234 47.4424 102.642C48.0039 103.025 48.7695 103.216 49.7393 103.216ZM65.3018 117.266V111.753H68.7471V85.1094H75.7909V111.753C75.7909 113.616 75.2932 114.994 74.2979 115.888C73.3281 116.806 71.9372 117.266 70.1253 117.266H65.3018ZM72.269 83.157C71.2227 83.157 70.3294 82.787 69.5893 82.0469C68.8492 81.3068 68.4792 80.4135 68.4792 79.3672C68.4792 78.3208 68.8492 77.4276 69.5893 76.6875C70.3294 75.9474 71.2227 75.5773 72.269 75.5773C73.3154 75.5773 74.2086 75.9474 74.9487 76.6875C75.6888 77.4276 76.0589 78.3208 76.0589 79.3672C76.0589 80.4135 75.6888 81.3068 74.9487 82.0469C74.2086 82.787 73.3154 83.157 72.269 83.157ZM91.5837 108.537C89.0571 108.537 86.8623 108.053 84.9993 107.083C83.1363 106.087 81.6944 104.697 80.6735 102.91C79.6782 101.098 79.1806 98.9672 79.1806 96.5172C79.1806 94.0672 79.6655 91.9617 80.6353 90.2008C81.6306 88.4143 83.0342 87.049 84.8462 86.1047C86.6837 85.1349 88.8402 84.65 91.3157 84.65C93.7657 84.65 95.8712 85.1221 97.6321 86.0664C99.3931 86.9852 100.733 88.3122 101.652 90.0477C102.596 91.7831 103.068 93.863 103.068 96.2875V98.5461H85.9564C86.2371 100.026 86.8496 101.149 87.7939 101.915C88.7381 102.655 89.9887 103.025 91.5454 103.025C92.7959 103.025 93.7657 102.834 94.4548 102.451C95.1694 102.042 95.6798 101.404 95.986 100.537H103.03C102.545 103.038 101.294 105.003 99.2782 106.432C97.2621 107.836 94.6972 108.537 91.5837 108.537ZM86.0712 93.9523H96.3306C96.1009 92.6763 95.565 91.732 94.7228 91.1195C93.9061 90.4815 92.7832 90.1625 91.354 90.1625C89.9504 90.1625 88.8019 90.4815 87.9087 91.1195C87.0155 91.7576 86.403 92.7018 86.0712 93.9523ZM114.273 108.078C112.486 108.078 111.095 107.632 110.1 106.738C109.13 105.82 108.645 104.429 108.645 102.566V90.6219H104.817V85.1094H108.722V78.2187H115.612V85.1094H120.665V90.6219H115.689V102.566H121.201V108.078H114.273ZM132.109 108.499C129.352 108.499 127.196 107.848 125.639 106.547C124.108 105.22 123.342 103.459 123.342 101.264C123.342 98.9927 124.146 97.2445 125.754 96.0195C127.387 94.769 129.71 94.1437 132.721 94.1437H138.884V93.3016C138.884 91.2089 137.557 90.1625 134.903 90.1625C132.555 90.1625 131.126 90.9536 130.616 92.5359H123.648C124.184 89.9328 125.397 87.9677 127.285 86.6406C129.174 85.3135 131.7 84.65 134.865 84.65C138.361 84.65 141.028 85.4284 142.866 86.9852C144.703 88.5164 145.622 90.7622 145.622 93.7227V101.187H148.914V108.078H141.87V104.25H140.263C139.471 105.628 138.425 106.687 137.123 107.427C135.822 108.142 134.15 108.499 132.109 108.499ZM133.18 103.216C134.303 103.216 135.286 103.025 136.128 102.642C136.996 102.259 137.672 101.736 138.157 101.073C138.642 100.409 138.884 99.669 138.884 98.8523V98.7375H133.027C131.062 98.7375 130.08 99.4648 130.08 100.92C130.08 101.66 130.348 102.234 130.884 102.642C131.445 103.025 132.211 103.216 133.18 103.216ZM153.11 108.078V92H149.665V85.1094H156.708V88.9375H158.316C159.235 87.6104 160.358 86.5768 161.685 85.8367C163.038 85.0711 164.76 84.6883 166.853 84.6883C170.12 84.6883 172.621 85.5688 174.356 87.3297C176.117 89.0906 176.998 91.4513 176.998 94.4117V108.078H169.954V95.7898C169.954 94.2076 169.533 93.0081 168.691 92.1914C167.874 91.3747 166.662 90.9664 165.054 90.9664C163.446 90.9664 162.221 91.3747 161.379 92.1914C160.562 93.0081 160.154 94.2076 160.154 95.7898V108.078H153.11ZM40.1953 159.078H32.5773L17.3797 138.789H17.2266V159.078H10.3359V128.07H17.6477L33.1516 148.934H33.3047V128.07H40.1953V159.078ZM56.88 159.537C54.3534 159.537 52.1458 159.053 50.2573 158.083C48.3688 157.087 46.9013 155.697 45.855 153.91C44.8341 152.098 44.3237 149.98 44.3237 147.555C44.3237 145.131 44.8341 143.026 45.855 141.239C46.9013 139.453 48.3688 138.074 50.2573 137.105C52.1458 136.135 54.3662 135.65 56.9182 135.65C59.4703 135.65 61.6651 136.135 63.5026 137.105C65.3656 138.074 66.8076 139.453 67.8284 141.239C68.8492 143.026 69.3596 145.144 69.3596 147.594C69.3596 150.018 68.8492 152.136 67.8284 153.948C66.8076 155.735 65.3656 157.113 63.5026 158.083C61.6396 159.053 59.432 159.537 56.88 159.537ZM56.88 153.412C58.6409 153.412 59.9807 152.889 60.8995 151.843C61.8438 150.771 62.3159 149.342 62.3159 147.555C62.3159 145.769 61.8438 144.365 60.8995 143.345C59.9807 142.298 58.6409 141.775 56.88 141.775C55.0935 141.775 53.7281 142.298 52.7839 143.345C51.8396 144.365 51.3675 145.769 51.3675 147.555C51.3675 149.342 51.8396 150.771 52.7839 151.843C53.7281 152.889 55.0935 153.412 56.88 153.412ZM77.8671 159.078L70.3639 136.109H77.5608L81.8866 150.197H82.078L87.1311 136.109H93.6389L98.6538 150.197H98.8452L103.209 136.109H110.33L102.865 159.078H95.4381L90.4233 145.603H90.2702L85.2936 159.078H77.8671ZM120.265 159.499C117.509 159.499 115.353 158.848 113.796 157.547C112.265 156.22 111.499 154.459 111.499 152.264C111.499 149.993 112.303 148.245 113.911 147.02C115.544 145.769 117.866 145.144 120.878 145.144H127.041V144.302C127.041 142.209 125.714 141.162 123.06 141.162C120.712 141.162 119.283 141.954 118.772 143.536H111.805C112.341 140.933 113.553 138.968 115.442 137.641C117.33 136.314 119.857 135.65 123.022 135.65C126.518 135.65 129.185 136.428 131.022 137.985C132.86 139.516 133.779 141.762 133.779 144.723V152.187H137.071V159.078H130.027V155.25H128.419C127.628 156.628 126.582 157.687 125.28 158.427C123.979 159.142 122.307 159.499 120.265 159.499ZM121.337 154.216C122.46 154.216 123.443 154.025 124.285 153.642C125.153 153.259 125.829 152.736 126.314 152.073C126.799 151.409 127.041 150.669 127.041 149.852V149.738H121.184C119.219 149.738 118.236 150.465 118.236 151.92C118.236 152.66 118.504 153.234 119.04 153.642C119.602 154.025 120.367 154.216 121.337 154.216ZM140.519 159.078V126.922H147.563V143.651H147.716L156.061 136.109H164.407L154.913 144.684L165.096 159.078H156.903L149.936 148.972L147.563 150.886V159.078H140.519Z" fill="black"/>
<rect y="179.156" width="196" height="16.8438" fill="black"/>
</g>
</g>
<defs>
<clipPath id="clip0_3_15">
<rect width="196" height="196" fill="white"/>
</clipPath>
<clipPath id="clip1_3_15">
<rect width="196" height="196" fill="white"/>
</clipPath>
</defs>
</svg>
