<svg width="512" height="512" viewBox="0 0 512 512" fill="none" xmlns="http://www.w3.org/2000/svg">
<rect width="512" height="512" fill="white"/>
<g clip-path="url(#clip0_7_3)">
<rect width="512" height="512" fill="#E9E9EA"/>
<path d="M27 282V201H45.8V232.2H46.2L79 201H102L67.2 233.7L102.6 282H80.4L54 245.4L45.8 252V282H27ZM127.131 283.1C119.931 283.1 114.298 281.4 110.231 278C106.231 274.533 104.231 269.933 104.231 264.2C104.231 258.267 106.331 253.7 110.531 250.5C114.798 247.233 120.865 245.6 128.731 245.6H144.831V243.4C144.831 237.933 141.365 235.2 134.431 235.2C128.298 235.2 124.565 237.267 123.231 241.4H105.031C106.431 234.6 109.598 229.467 114.531 226C119.465 222.533 126.065 220.8 134.331 220.8C143.465 220.8 150.431 222.833 155.231 226.9C160.031 230.9 162.431 236.767 162.431 244.5V264H171.031V282H152.631V272H148.431C146.365 275.6 143.631 278.367 140.231 280.3C136.831 282.167 132.465 283.1 127.131 283.1ZM129.931 269.3C132.865 269.3 135.431 268.8 137.631 267.8C139.898 266.8 141.665 265.433 142.931 263.7C144.198 261.967 144.831 260.033 144.831 257.9V257.6H129.531C124.398 257.6 121.831 259.5 121.831 263.3C121.831 265.233 122.531 266.733 123.931 267.8C125.398 268.8 127.398 269.3 129.931 269.3ZM170.584 306V291.6H179.584V222H197.984V291.6C197.984 296.467 196.684 300.067 194.084 302.4C191.551 304.8 187.918 306 183.184 306H170.584ZM188.784 216.9C186.051 216.9 183.718 215.933 181.784 214C179.851 212.067 178.884 209.733 178.884 207C178.884 204.267 179.851 201.933 181.784 200C183.718 198.067 186.051 197.1 188.784 197.1C191.518 197.1 193.851 198.067 195.784 200C197.718 201.933 198.684 204.267 198.684 207C198.684 209.733 197.718 212.067 195.784 214C193.851 215.933 191.518 216.9 188.784 216.9ZM239.239 283.2C232.639 283.2 226.906 281.933 222.039 279.4C217.172 276.8 213.406 273.167 210.739 268.5C208.139 263.767 206.839 258.2 206.839 251.8C206.839 245.4 208.106 239.9 210.639 235.3C213.239 230.633 216.906 227.067 221.639 224.6C226.439 222.067 232.072 220.8 238.539 220.8C244.939 220.8 250.439 222.033 255.039 224.5C259.639 226.9 263.139 230.367 265.539 234.9C268.006 239.433 269.239 244.867 269.239 251.2V257.1H224.539C225.272 260.967 226.872 263.9 229.339 265.9C231.806 267.833 235.072 268.8 239.139 268.8C242.406 268.8 244.939 268.3 246.739 267.3C248.606 266.233 249.939 264.567 250.739 262.3H269.139C267.872 268.833 264.606 273.967 259.339 277.7C254.072 281.367 247.372 283.2 239.239 283.2ZM224.839 245.1H251.639C251.039 241.767 249.639 239.3 247.439 237.7C245.306 236.033 242.372 235.2 238.639 235.2C234.972 235.2 231.972 236.033 229.639 237.7C227.306 239.367 225.706 241.833 224.839 245.1ZM298.508 282C293.841 282 290.208 280.833 287.608 278.5C285.074 276.1 283.808 272.467 283.808 267.6V236.4H273.808V222H284.008V204H302.008V222H315.208V236.4H302.208V267.6H316.608V282H298.508ZM345.1 283.1C337.9 283.1 332.267 281.4 328.2 278C324.2 274.533 322.2 269.933 322.2 264.2C322.2 258.267 324.3 253.7 328.5 250.5C332.767 247.233 338.833 245.6 346.7 245.6H362.8V243.4C362.8 237.933 359.333 235.2 352.4 235.2C346.267 235.2 342.533 237.267 341.2 241.4H323C324.4 234.6 327.567 229.467 332.5 226C337.433 222.533 344.033 220.8 352.3 220.8C361.433 220.8 368.4 222.833 373.2 226.9C378 230.9 380.4 236.767 380.4 244.5V264H389V282H370.6V272H366.4C364.333 275.6 361.6 278.367 358.2 280.3C354.8 282.167 350.433 283.1 345.1 283.1ZM347.9 269.3C350.833 269.3 353.4 268.8 355.6 267.8C357.867 266.8 359.633 265.433 360.9 263.7C362.167 261.967 362.8 260.033 362.8 257.9V257.6H347.5C342.367 257.6 339.8 259.5 339.8 263.3C339.8 265.233 340.5 266.733 341.9 267.8C343.367 268.8 345.367 269.3 347.9 269.3ZM399.961 282V240H390.961V222H409.361V232H413.561C415.961 228.533 418.894 225.833 422.361 223.9C425.894 221.9 430.394 220.9 435.861 220.9C444.394 220.9 450.928 223.2 455.461 227.8C460.061 232.4 462.361 238.567 462.361 246.3V282H443.961V249.9C443.961 245.767 442.861 242.633 440.661 240.5C438.528 238.367 435.361 237.3 431.161 237.3C426.961 237.3 423.761 238.367 421.561 240.5C419.428 242.633 418.361 245.767 418.361 249.9V282H399.961ZM105 416H85.1L45.4 363H45V416H27V335H46.1L86.6 389.5H87V335H105V416ZM148.584 417.2C141.984 417.2 136.218 415.933 131.284 413.4C126.351 410.8 122.518 407.167 119.784 402.5C117.118 397.767 115.784 392.233 115.784 385.9C115.784 379.567 117.118 374.067 119.784 369.4C122.518 364.733 126.351 361.133 131.284 358.6C136.218 356.067 142.018 354.8 148.684 354.8C155.351 354.8 161.084 356.067 165.884 358.6C170.751 361.133 174.518 364.733 177.184 369.4C179.851 374.067 181.184 379.6 181.184 386C181.184 392.333 179.851 397.867 177.184 402.6C174.518 407.267 170.751 410.867 165.884 413.4C161.018 415.933 155.251 417.2 148.584 417.2ZM148.584 401.2C153.184 401.2 156.684 399.833 159.084 397.1C161.551 394.3 162.784 390.567 162.784 385.9C162.784 381.233 161.551 377.567 159.084 374.9C156.684 372.167 153.184 370.8 148.584 370.8C143.918 370.8 140.351 372.167 137.884 374.9C135.418 377.567 134.184 381.233 134.184 385.9C134.184 390.567 135.418 394.3 137.884 397.1C140.351 399.833 143.918 401.2 148.584 401.2ZM203.408 416L183.808 356H202.608L213.908 392.8H214.408L227.608 356H244.608L257.708 392.8H258.208L269.608 356H288.208L268.708 416H249.308L236.208 380.8H235.808L222.808 416H203.408ZM314.163 417.1C306.962 417.1 301.329 415.4 297.263 412C293.263 408.533 291.263 403.933 291.263 398.2C291.263 392.267 293.363 387.7 297.562 384.5C301.829 381.233 307.896 379.6 315.763 379.6H331.863V377.4C331.863 371.933 328.396 369.2 321.463 369.2C315.329 369.2 311.596 371.267 310.263 375.4H292.063C293.463 368.6 296.629 363.467 301.563 360C306.496 356.533 313.096 354.8 321.363 354.8C330.496 354.8 337.463 356.833 342.263 360.9C347.062 364.9 349.462 370.767 349.462 378.5V398H358.063V416H339.663V406H335.463C333.396 409.6 330.663 412.367 327.263 414.3C323.863 416.167 319.496 417.1 314.163 417.1ZM316.963 403.3C319.896 403.3 322.463 402.8 324.663 401.8C326.929 400.8 328.696 399.433 329.962 397.7C331.229 395.967 331.863 394.033 331.863 391.9V391.6H316.563C311.429 391.6 308.862 393.5 308.862 397.3C308.862 399.233 309.563 400.733 310.963 401.8C312.429 402.8 314.429 403.3 316.963 403.3ZM367.07 416V332H385.47V375.7H385.87L407.67 356H429.47L404.67 378.4L431.27 416H409.87L391.67 389.6L385.47 394.6V416H367.07Z" fill="black"/>
<rect y="468" width="512" height="44" fill="black"/>
</g>
<defs>
<clipPath id="clip0_7_3">
<rect width="512" height="512" fill="white"/>
</clipPath>
</defs>
</svg>
